<?xml version="1.0" encoding="UTF-8" standalone="no"?>
<!-- Created with Inkscape (http://www.inkscape.org/) -->

<svg
   width="210mm"
   height="297mm"
   viewBox="0 0 210 297"
   version="1.1"
   id="svg1"
   xml:space="preserve"
   xmlns:inkscape="http://www.inkscape.org/namespaces/inkscape"
   xmlns:sodipodi="http://sodipodi.sourceforge.net/DTD/sodipodi-0.dtd"
   xmlns="http://www.w3.org/2000/svg"
   xmlns:svg="http://www.w3.org/2000/svg"><sodipodi:namedview
     id="namedview1"
     pagecolor="#ffffff"
     bordercolor="#666666"
     borderopacity="1.0"
     inkscape:showpageshadow="2"
     inkscape:pageopacity="0.0"
     inkscape:pagecheckerboard="0"
     inkscape:deskcolor="#d1d1d1"
     inkscape:document-units="mm"><inkscape:page
       x="0"
       y="0"
       width="210"
       height="297"
       id="page2"
       margin="0"
       bleed="0" /></sodipodi:namedview><defs
     id="defs1" /><g
     inkscape:label="Layer 1"
     inkscape:groupmode="layer"
     id="layer1"><path
       style="fill:#d38d5f;stroke:#000000;stroke-width:0.264583px;stroke-linecap:butt;stroke-linejoin:miter;stroke-opacity:1"
       d="m 113.97147,146.58681 -0.27331,9.01932 -0.36442,5.83068 -0.91104,5.01073 2.36871,5.28405 0.27331,3.09755 -0.81994,3.00644 1.00215,3.00644 -0.36442,2.1865 -0.72883,0.54663 h -0.54663 l -0.0911,-0.63773 -0.54663,1.45767 -0.27331,0.45552 -1.00215,-0.27331 -0.0911,-0.81994 -0.18221,-2.00429 -0.63773,0.72883 -0.63773,0.36442 -0.27331,-0.54663 0.0911,-1.18435 0.45552,-1.63988 0.54663,-0.63773 0.72883,-0.63773 0.45553,-1.00215 0.72883,-3.37086 -1.36656,-2.1865 -2.45982,9.29264 -0.0911,1.91319 -0.27332,1.54877 1.54877,9.20153 1.27547,1.73099 1.82208,0.63772 0.63773,0.18221 0.72884,1.27546 0.27331,1.36657 -0.45552,0.54662 -0.54663,-0.63773 0.0911,0.81994 -0.91104,1.00215 -0.81994,-0.0911 -0.45552,-0.36441 -0.63773,-0.81994 0.18221,1.18435 -0.72883,0.45553 h -1.00215 l -1.36656,-0.81994 -1.45767,-2.0043 -0.54663,-1.91319 0.45552,-1.18435 0.18221,-3.64417 -0.36442,-3.09755 -0.36441,-4.373 -0.81994,-0.27332 -1.82209,-0.54663 h -0.45552 v 3.37086 l -0.0911,3.46197 0.45552,4.82853 0.36441,1.45766 -0.36441,1.18436 -2.27761,1.91319 -2.277609,0.63773 -0.364415,-1.00215 1.09325,-1.09325 -1.548773,2.00429 -1.002146,-0.1822 -0.273312,-0.36442 0.911042,-1.91319 -0.911042,2.27761 -1.184357,-0.27332 1.002146,-1.63987 -0.911042,1.82208 -0.546624,-0.45552 0.728834,-1.73098 -0.911045,1.45767 -0.273312,-1.18436 0.0911,-0.63773 5.101841,-2.55092 1.002154,-5.83067 0.27331,-5.83068 -0.72884,-1.18435 -0.819938,-1.45767 -0.637728,-2.55092 -0.455522,-2.73313 -1.002147,1.36656 0.0911,1.36657 0.364416,1.00215 -0.0911,0.36441 -0.364416,-0.18221 -0.63773,-0.27331 H 96.66165 l 0.273315,0.72883 v 0.54663 l -0.273315,0.54663 -0.546624,0.0911 -0.273314,-0.45552 -0.45552,-0.81994 -0.273315,1.27546 -0.364416,0.45552 h -0.182208 l -0.728834,-0.54662 -0.455523,-1.73098 0.546627,1.91318 v 0.45553 l -0.637731,0.63773 -1.639877,2.1865 -3.370857,3.73527 -3.006442,2.36872 -2.550922,3.18865 -1.730981,1.91319 c 0,0 0.364416,10.11257 8.199387,-1.18436 7.834969,-11.29693 6.103988,-8.83711 6.103988,-8.83711 l 2.095397,-3.55307 1.093253,-2.0043 0.0911,-1.18435 -0.728835,-0.72884 -0.0911,0.18221 0.182208,0.81994 -0.728834,0.27331 -0.45552,-0.36441 0.182208,1.18435 -0.273315,0.91104 -0.911042,-0.36441 -0.45552,-1.27546 -0.182211,2.00429 -0.911042,-0.27331 -0.819939,-2.00429 1.093253,-1.09326 1.913189,-5.10184 1.366565,-3.82638 1.184354,8.3816 0.455523,2.2776 -1.822085,-12.20797 -0.546626,-3.82638 v -11.57025 l 0.455522,-5.73957 1.275458,-1.00214 2.095401,-0.63773 4.55522,-0.72884 h 3.27975 l 3.27976,1.09325 z"
       id="path1" /><path
       style="fill:none;stroke:#000000;stroke-width:0.264583px;stroke-linecap:butt;stroke-linejoin:miter;stroke-opacity:1"
       d="m 107.13865,166.81196 0.36442,2.45982 -0.63773,4.73742 -1.36657,7.10614 -0.0911,1.63987"
       id="path2" /><path
       style="fill:#000000;stroke:#000000;stroke-width:0.264583px;stroke-linecap:butt;stroke-linejoin:miter;stroke-opacity:1"
       d="m 110.14509,166.72086 -0.27331,4.73742 -2.27761,10.93252"
       id="path3" /><path
       style="fill:none;stroke:#000000;stroke-width:0.264583px;stroke-linecap:butt;stroke-linejoin:miter;stroke-opacity:1"
       d="m 111.96718,166.62975 -0.72884,4.82853"
       id="path4" /><path
       style="fill:none;stroke:#000000;stroke-width:0.264583px;stroke-linecap:butt;stroke-linejoin:miter;stroke-opacity:1"
       d="m 111.05613,145.12914 0.81994,5.83068"
       id="path5" /><path
       style="fill:none;stroke:#000000;stroke-width:0.264583px;stroke-linecap:butt;stroke-linejoin:miter;stroke-opacity:1"
       d="m 104.0411,167.35859 0.27331,12.66349"
       id="path6" /><path
       style="fill:none;stroke:#000000;stroke-width:0.264583px;stroke-linecap:butt;stroke-linejoin:miter;stroke-opacity:1"
       d="m 101.30798,167.5408 0.81993,11.66134"
       id="path7" /><path
       style="fill:none;stroke:#000000;stroke-width:0.264583px;stroke-linecap:butt;stroke-linejoin:miter;stroke-opacity:1"
       d="m 100.12362,168.36073 1.36656,10.65921"
       id="path8" /><path
       style="fill:none;stroke:#000000;stroke-width:0.264583px;stroke-linecap:butt;stroke-linejoin:miter;stroke-opacity:1"
       d="m 101.9457,144.58251 0.27332,4.00859 0.36441,2.73313"
       id="path9" /><path
       style="fill:none;stroke:#000000;stroke-width:0.264583px;stroke-linecap:butt;stroke-linejoin:miter;stroke-opacity:1"
       d="m 103.95,144.40031 v 2.55091 l 1.09325,6.74172"
       id="path10" /><path
       style="fill:none;stroke:#000000;stroke-width:0.264583px;stroke-linecap:butt;stroke-linejoin:miter;stroke-opacity:1"
       d="m 106.31871,144.76472 -0.36442,2.1865 0.72884,2.73313"
       id="path11" /><path
       style="fill:none;stroke:#000000;stroke-width:0.264583px;stroke-linecap:butt;stroke-linejoin:miter;stroke-opacity:1"
       d="m 108.50521,145.40245 0.72884,1.54877 0.91104,3.00645"
       id="path12" /><path
       style="fill:none;stroke:#000000;stroke-width:0.264583px;stroke-linecap:butt;stroke-linejoin:miter;stroke-opacity:1"
       d="m 100.76135,145.49356 -0.18221,4.00859"
       id="path13" /><path
       style="fill:none;stroke:#000000;stroke-width:0.264583px;stroke-linecap:butt;stroke-linejoin:miter;stroke-opacity:1"
       d="m 106.50092,150.04877 1.27546,1.63988 h 2.0954 l -2.0043,-2.36871 z"
       id="path14" /><path
       style="fill:none;stroke:#000000;stroke-width:0.264583px;stroke-linecap:butt;stroke-linejoin:miter;stroke-opacity:1"
       d="m 100.94356,149.59325 0.72883,0.81994 -2.004294,0.91104 -1.09325,0.0911 -0.273312,-0.18221 0.182208,-0.27331 0.728834,-0.81995 z"
       id="path15" /><path
       style="fill:none;stroke:#000000;stroke-width:0.264583px;stroke-linecap:butt;stroke-linejoin:miter;stroke-opacity:1"
       d="m 103.40337,158.61258 -1.82208,0.45552 -0.81994,1.09325 0.27331,0.81994 0.81994,0.54662 c 0,0 1.09325,0.0911 1.45767,0.0911 0.36442,0 0.81994,0 0.81994,0"
       id="path16" /><path
       style="fill:#ffffff;stroke:#000000;stroke-width:0.264583px;stroke-linecap:butt;stroke-linejoin:miter;stroke-opacity:1"
       d="m 109.50736,154.42178 0.45552,1.73098 -0.27331,1.09325 -0.36442,1.54877 -0.72883,0.36442 -1.18436,0.36442 -1.18435,-0.72884 -0.91105,-1.73098 -0.54662,-1.91319 1.00214,-1.36656 1.54878,-0.54663 1.27546,0.36442 z"
       id="path17" /><path
       style="fill:#ffffff;stroke:#000000;stroke-width:0.264583px;stroke-linecap:butt;stroke-linejoin:miter;stroke-opacity:1"
       d="m 101.58129,154.42178 0.0911,2.2776 -0.18221,1.00215 -0.81994,0.63773 -1.36656,0.27332 -1.184357,-0.36442 -0.0911,-1.82209 0.273315,-2.00429 1.639876,-1.00215 0.911036,0.18221 z"
       id="path18" /><path
       style="fill:none;stroke:#000000;stroke-width:0.264583px;stroke-linecap:butt;stroke-linejoin:miter;stroke-opacity:1"
       d="m 99.94141,162.16564 0.18221,0.81994 -0.637732,0.72883"
       id="path19" /><path
       style="fill:none;stroke:#000000;stroke-width:0.264583px;stroke-linecap:butt;stroke-linejoin:miter;stroke-opacity:1"
       d="m 107.22975,161.98343 1.73099,0.81994"
       id="path20" /><path
       style="fill:none;stroke:#000000;stroke-width:0.264583px;stroke-linecap:butt;stroke-linejoin:miter;stroke-opacity:1"
       d="m 100.30583,162.98558 1.73098,1.00215 h 2.2776 l 1.82209,-0.0911 1.45767,-1.18435 0.0911,-0.27331"
       id="path21" /><path
       style="fill:none;stroke:#000000;stroke-width:0.264583px;stroke-linecap:butt;stroke-linejoin:miter;stroke-opacity:1"
       d="m 119.71104,145.40245 4.73743,0.27332"
       id="path22" /><path
       style="fill:none;stroke:#000000;stroke-width:0.264583px;stroke-linecap:butt;stroke-linejoin:miter;stroke-opacity:1"
       d="m 122.62638,145.67577 -0.63773,4.4641"
       id="path23" /><path
       style="fill:none;stroke:#000000;stroke-width:0.264583px;stroke-linecap:butt;stroke-linejoin:miter;stroke-opacity:1"
       d="m 120.9865,152.7819 0.18221,2.73313 0.0911,0.27331 0.81993,-0.18221 0.54663,-0.81993 0.36442,-1.54878 v 1.54878 l 0.36441,1.45766"
       id="path24" /><path
       style="fill:none;stroke:#000000;stroke-width:0.264583px;stroke-linecap:butt;stroke-linejoin:miter;stroke-opacity:1"
       d="m 121.0776,158.24816 -0.36441,3.18865 0.72883,-1.63988 1.00215,-1.09325 0.27331,3.46196"
       id="path25" /><path
       style="fill:none;stroke:#000000;stroke-width:0.264583px;stroke-linecap:butt;stroke-linejoin:miter;stroke-opacity:1"
       d="m 121.62423,164.98988 -0.63773,0.1822 -0.18221,1.45767 v 0.54663 l 0.36442,0.0911 0.36442,-0.63773 0.63773,-1.00214 v -0.54663 c 0,0 0,0.91104 0,1.36656 0,0.45552 0,2.0043 0,2.0043 l -0.0911,2.0954 -0.45552,0.54662 -0.91104,0.45552"
       id="path26" /><path
       style="fill:none;stroke:#000000;stroke-width:0.264583px;stroke-linecap:butt;stroke-linejoin:miter;stroke-opacity:1"
       d="m 120.80429,182.20859 2.0954,-0.27332 -0.91104,0.45553 -0.0911,4.4641 -0.18221,1.00215"
       id="path27" /><path
       style="fill:none;stroke:#000000;stroke-width:0.264583px;stroke-linecap:butt;stroke-linejoin:miter;stroke-opacity:1"
       d="m 120.43988,189.22362 0.91104,3.64417 0.54663,-0.45552 0.63772,-1.45767 0.72884,-1.73098 0.63773,3.64417"
       id="path28" /><path
       style="fill:none;stroke:#000000;stroke-width:0.264583px;stroke-linecap:butt;stroke-linejoin:miter;stroke-opacity:1"
       d="m 121.62423,194.23435 -0.36441,3.91749 0.45552,-1.54878 0.81993,-1.27545 0.72884,-0.91105 0.36442,0.0911 -0.0911,1.18435 v 2.64203"
       id="path29" /><path
       style="fill:none;stroke:#000000;stroke-width:0.264583px;stroke-linecap:butt;stroke-linejoin:miter;stroke-opacity:1"
       d="M 123.26411,200.06503 Z"
       id="path30" /><path
       style="fill:none;stroke:#000000;stroke-width:0.264583px;stroke-linecap:butt;stroke-linejoin:miter;stroke-opacity:1"
       d="m 123.173,200.24724 -0.54662,-0.63773 -0.72883,1.00214 0.1822,1.73099 0.0911,0.45552 0.18221,0.36441 0.54662,-0.1822 -0.0911,-1.54878 0.18221,-0.54662 0.54662,0.0911 c 0,0 -0.0911,1.00215 -0.0911,1.36657 0,0.36441 0.18221,1.63987 0.18221,1.63987 0,0 -1.09326,1.91319 -1.09326,2.45982 0,0.54663 -0.72883,1.09325 -0.72883,1.09325 l -0.72884,-0.81994"
       id="path31" /><path
       style="fill:none;stroke:#000000;stroke-width:0.264583px;stroke-linecap:butt;stroke-linejoin:miter;stroke-opacity:1"
       d="m 132.73896,146.22239 3.37085,-0.36442"
       id="path32" /><path
       style="fill:none;stroke:#000000;stroke-width:0.264583px;stroke-linecap:butt;stroke-linejoin:miter;stroke-opacity:1"
       d="m 134.74325,146.13129 -0.54662,4.64631"
       id="path33" /><path
       style="fill:none;stroke:#000000;stroke-width:0.264583px;stroke-linecap:butt;stroke-linejoin:miter;stroke-opacity:1"
       d="m 133.10337,152.23527 0.27332,3.37086 c 0,0 0.45552,-0.91104 0.63772,-1.36656 0.18222,-0.45552 0.63774,-1.45767 0.63774,-1.45767 l 0.0911,1.09325 0.0911,1.27546"
       id="path34" /><path
       style="fill:none;stroke:#000000;stroke-width:0.264583px;stroke-linecap:butt;stroke-linejoin:miter;stroke-opacity:1"
       d="m 133.19448,157.70153 -0.36442,3.46197 0.63773,-2.0043 0.63773,-0.36442 0.63773,-0.36441 0.0911,2.09539"
       id="path35" /><path
       style="fill:none;stroke:#000000;stroke-width:0.264583px;stroke-linecap:butt;stroke-linejoin:miter;stroke-opacity:1"
       d="m 134.65215,162.62116 h -0.81994 l -0.18221,2.0954 0.18221,0.63773 0.81994,-1.00214 0.63773,-1.27547 -0.18221,2.36872 c 0,0 -0.27332,2.0954 -0.36442,2.45981 -0.0911,0.36442 -0.63773,0.72884 -0.63773,0.72884 l -1.09325,0.0911"
       id="path36" /><path
       style="fill:none;stroke:#000000;stroke-width:0.264583px;stroke-linecap:butt;stroke-linejoin:miter;stroke-opacity:1"
       d="m 134.46994,177.92669 -0.72884,0.63773 -0.0911,1.09325 0.27331,0.91104 0.81994,0.81994 -0.0911,1.18435 -1.09326,1.27547"
       id="path37" /><path
       style="fill:none;stroke:#000000;stroke-width:0.264583px;stroke-linecap:butt;stroke-linejoin:miter;stroke-opacity:1"
       d="m 134.83435,187.49263 -1.09325,-1.00214 -0.27331,1.36656 -0.27331,1.54878 0.63773,1.18435 0.45552,-1.45767 0.36442,-0.81994 0.81993,2.36872 1.00215,0.27331"
       id="path38" /><path
       style="fill:none;stroke:#000000;stroke-width:0.264583px;stroke-linecap:butt;stroke-linejoin:miter;stroke-opacity:1"
       d="m 133.10337,193.05 -0.18221,6.10399 0.36442,-1.45767 1.00215,-1.36657 0.54662,-0.27331 0.36442,2.00429 0.27331,1.27546"
       id="path39" /><path
       style="fill:none;stroke:#000000;stroke-width:0.264583px;stroke-linecap:butt;stroke-linejoin:miter;stroke-opacity:1"
       d="m 133.19448,200.97607 0.18221,4.46411 0.63772,0.0911 c 0,0 0.45553,-0.81994 0.45553,-1.27546 0,-0.45552 0.63773,-1.82209 0.63773,-1.82209 l 0.18221,2.73313"
       id="path40" /><path
       style="fill:none;stroke:#000000;stroke-width:0.264583px;stroke-linecap:butt;stroke-linejoin:miter;stroke-opacity:1"
       d="m 133.37669,207.80889 -0.18221,4.28191 0.27331,-1.36657 1.27546,-1.18436 1.09325,-1.36656 1.18436,-0.18221"
       id="path41" /><ellipse
       style="fill:none;stroke-width:0.264583"
       id="path42"
       cx="106.80913"
       cy="155.8331"
       rx="0.77304554"
       ry="1.0951478" /><circle
       style="fill:#000000;stroke-width:0.264583"
       id="path43"
       cx="108.35522"
       cy="156.54172"
       r="1.1595684" /><circle
       style="fill:#000000;stroke-width:0.264583"
       id="path43-5"
       cx="100.38979"
       cy="156.14557"
       r="1.1595684" /></g></svg>
